HIERARCHY
ROOT hip
{
  OFFSET 0 -7 0
  CHANNELS 6 Xposition Yposition Zposition Zrotation Xrotation Yrotation
  JOINT abdomen
  {
    OFFSET 0 -1.186 -1.50178
    CHANNELS 6 Xposition Yposition Zposition Zrotation Xrotation Yrotation
    JOINT abdomen2
    {
      OFFSET 0 9.964 0.21338
      CHANNELS 6 Xposition Yposition Zposition Zrotation Xrotation Yrotation
      JOINT chest
      {
        OFFSET 0 13.134 -3.25729
        CHANNELS 6 Xposition Yposition Zposition Zrotation Xrotation Yrotation
        JOINT neck
        {
          OFFSET 0 21.686 -1.69049
          CHANNELS 6 Xposition Yposition Zposition Zrotation Xrotation Yrotation
          JOINT head
          {
            OFFSET 0 11.838 -0.12368
            CHANNELS 6 Xposition Yposition Zposition Zrotation Xrotation Yrotation
            End Site
            {
              OFFSET 0 6.717 2.38717
            }
          }
        }
        JOINT lCollar
        {
          OFFSET 1.70688 20.075 5.0056
          CHANNELS 6 Xposition Yposition Zposition Zrotation Xrotation Yrotation
          JOINT lShldr
          {
            OFFSET 13.6458 -0.047012 -4.84902
            CHANNELS 6 Xposition Yposition Zposition Zrotation Xrotation Yrotation
            JOINT lForeArm
            {
              OFFSET 28.3255 -0.975903 2.28883
              CHANNELS 6 Xposition Yposition Zposition Zrotation Xrotation Yrotation
              JOINT lHand
              {
                OFFSET 22.1583 -0.530035 10.8316
                CHANNELS 6 Xposition Yposition Zposition Zrotation Xrotation Yrotation
                JOINT lThumb1
                {
                  OFFSET 0.785995 0.111999 2.58168
                  CHANNELS 6 Xposition Yposition Zposition Zrotation Xrotation Yrotation
                  JOINT lThumb2
                  {
                    OFFSET 0.3601 -0.878005 4.2331
                    CHANNELS 6 Xposition Yposition Zposition Zrotation Xrotation Yrotation
                    End Site
                    {
                      OFFSET 1.81271 -1.21601 2.2227
                    }
                  }
                }
                JOINT lCarpal1
                {
                  OFFSET 0.9571 1.114 1.76948
                  CHANNELS 6 Xposition Yposition Zposition Zrotation Xrotation Yrotation
                  JOINT lIndex1
                  {
                    OFFSET 4.1246 0.487 4.1451
                    CHANNELS 6 Xposition Yposition Zposition Zrotation Xrotation Yrotation
                    JOINT lIndex2
                    {
                      OFFSET 3.40521 -1.45401 2.7682
                      CHANNELS 6 Xposition Yposition Zposition Zrotation Xrotation Yrotation
                      End Site
                      {
                        OFFSET 1.4531 -1.795 1.2713
                      }
                    }
                  }
                  JOINT lMid1
                  {
                    OFFSET 5.6954 0.209991 2.1184
                    CHANNELS 6 Xposition Yposition Zposition Zrotation Xrotation Yrotation
                    JOINT lMid2
                    {
                      OFFSET 3.9766 -1.53999 2.3863
                      CHANNELS 6 Xposition Yposition Zposition Zrotation Xrotation Yrotation
                      End Site
                      {
                        OFFSET 1.4042 -1.926 1.125
                      }
                    }
                  }
                }
                JOINT lCarpal2
                {
                  OFFSET 2.09559 0.65999 -0.38939
                  CHANNELS 6 Xposition Yposition Zposition Zrotation Xrotation Yrotation
                  JOINT lRing1
                  {
                    OFFSET 5.0395 -0.089997 2.49707
                    CHANNELS 6 Xposition Yposition Zposition Zrotation Xrotation Yrotation
                    JOINT lRing2
                    {
                      OFFSET 3.7921 -1.552 1.4806
                      CHANNELS 6 Xposition Yposition Zposition Zrotation Xrotation Yrotation
                      End Site
                      {
                        OFFSET 1.4655 -1.808 0.9609
                      }
                    }
                  }
                  JOINT lPinky1
                  {
                    OFFSET 4.9141 -1.269 0.35915
                    CHANNELS 6 Xposition Yposition Zposition Zrotation Xrotation Yrotation
                    JOINT lPinky2
                    {
                      OFFSET 3.1477 -1.685 0.84623
                      CHANNELS 6 Xposition Yposition Zposition Zrotation Xrotation Yrotation
                      End Site
                      {
                        OFFSET 0.805505 -1.58499 0.79549
                      }
                    }
                  }
                }
              }
            }
          }
        }
        JOINT rCollar
        {
          OFFSET -1.70688 20.075 5.0056
          CHANNELS 6 Xposition Yposition Zposition Zrotation Xrotation Yrotation
          JOINT rShldr
          {
            OFFSET -13.6458 -0.047012 -4.84902
            CHANNELS 6 Xposition Yposition Zposition Zrotation Xrotation Yrotation
            JOINT rForeArm
            {
              OFFSET -28.3255 -0.975903 2.28883
              CHANNELS 6 Xposition Yposition Zposition Zrotation Xrotation Yrotation
              JOINT rHand
              {
                OFFSET -22.1583 -0.530036 10.8316
                CHANNELS 6 Xposition Yposition Zposition Zrotation Xrotation Yrotation
                JOINT rThumb1
                {
                  OFFSET -0.785995 0.111999 2.58168
                  CHANNELS 6 Xposition Yposition Zposition Zrotation Xrotation Yrotation
                  JOINT rThumb2
                  {
                    OFFSET -0.3601 -0.878005 4.2331
                    CHANNELS 6 Xposition Yposition Zposition Zrotation Xrotation Yrotation
                    End Site
                    {
                      OFFSET -1.81271 -1.21601 2.2227
                    }
                  }
                }
                JOINT rCarpal1
                {
                  OFFSET -0.9571 1.114 1.76948
                  CHANNELS 6 Xposition Yposition Zposition Zrotation Xrotation Yrotation
                  JOINT rIndex1
                  {
                    OFFSET -4.1246 0.487 4.1451
                    CHANNELS 6 Xposition Yposition Zposition Zrotation Xrotation Yrotation
                    JOINT rIndex2
                    {
                      OFFSET -3.40521 -1.45401 2.7682
                      CHANNELS 6 Xposition Yposition Zposition Zrotation Xrotation Yrotation
                      End Site
                      {
                        OFFSET -1.4531 -1.795 1.2713
                      }
                    }
                  }
                  JOINT rMid1
                  {
                    OFFSET -5.6954 0.209991 2.1184
                    CHANNELS 6 Xposition Yposition Zposition Zrotation Xrotation Yrotation
                    JOINT rMid2
                    {
                      OFFSET -3.9766 -1.53999 2.3863
                      CHANNELS 6 Xposition Yposition Zposition Zrotation Xrotation Yrotation
                      End Site
                      {
                        OFFSET -1.4042 -1.926 1.125
                      }
                    }
                  }
                }
                JOINT rCarpal2
                {
                  OFFSET -2.09559 0.65999 -0.38939
                  CHANNELS 6 Xposition Yposition Zposition Zrotation Xrotation Yrotation
                  JOINT rRing1
                  {
                    OFFSET -5.0395 -0.089997 2.49707
                    CHANNELS 6 Xposition Yposition Zposition Zrotation Xrotation Yrotation
                    JOINT rRing2
                    {
                      OFFSET -3.7921 -1.552 1.4806
                      CHANNELS 6 Xposition Yposition Zposition Zrotation Xrotation Yrotation
                      End Site
                      {
                        OFFSET -1.4655 -1.808 0.9609
                      }
                    }
                  }
                  JOINT rPinky1
                  {
                    OFFSET -4.9141 -1.269 0.35915
                    CHANNELS 6 Xposition Yposition Zposition Zrotation Xrotation Yrotation
                    JOINT rPinky2
                    {
                      OFFSET -3.1477 -1.685 0.84623
                      CHANNELS 6 Xposition Yposition Zposition Zrotation Xrotation Yrotation
                      End Site
                      {
                        OFFSET -0.805505 -1.58499 0.79549
                      }
                    }
                  }
                }
              }
            }
          }
        }
      }
    }
  }
  JOINT lThigh
  {
    OFFSET 8.367 -8.2066 0.59823
    CHANNELS 6 Xposition Yposition Zposition Zrotation Xrotation Yrotation
    JOINT lShin
    {
      OFFSET 2.19232 -43.463 -0.493181
      CHANNELS 6 Xposition Yposition Zposition Zrotation Xrotation Yrotation
      JOINT lFoot
      {
        OFFSET 0.733257 -45.8593 -2.64513
        CHANNELS 6 Xposition Yposition Zposition Zrotation Xrotation Yrotation
        End Site
        {
          OFFSET 2.6618 -4.26993 12.3931
        }
      }
    }
  }
  JOINT rThigh
  {
    OFFSET -8.367 -8.2066 0.59823
    CHANNELS 6 Xposition Yposition Zposition Zrotation Xrotation Yrotation
    JOINT rShin
    {
      OFFSET -2.19233 -43.463 -0.493108
      CHANNELS 6 Xposition Yposition Zposition Zrotation Xrotation Yrotation
      JOINT rFoot
      {
        OFFSET -0.733256 -45.8593 -2.64514
        CHANNELS 6 Xposition Yposition Zposition Zrotation Xrotation Yrotation
        End Site
        {
          OFFSET -2.6618 -4.26993 12.3931
        }
      }
    }
  }
}
MOTION
Frames:	4
Frame Time:	0.0333333
22.117 103.812 -5.42858 4.04281 -4.68351 21.2285 0 -1.186 -1.50178 -1.05059 1.39993 -0.70624 3.55271e-015 9.964 0.21338 -2.08478 2.81248 -1.38731 0 13.134 -3.25729 -2.08478 2.81248 -1.38731 0 21.686 -1.69049 1.83929 20.4971 6.193 3.55272e-015 11.838 -0.12368 -2.11255 1.03285 6.5251 1.70688 20.075 5.0056 -8.66319 7.04301 -6.17859 13.6458 -0.047012 -4.84902 -50.7096 41.2563 -1.50215 28.3255 -0.975903 2.28883 2.29187 -1.03576 -16.8343 22.1583 -0.530035 10.8316 8.71187 -6.83714 7.7125 0.785995 0.111999 2.58168 7.95139e-016 6.36111e-015 7.95139e-016 0.3601 -0.878005 4.2331 1.19271e-015 0 -3.97569e-015 0.9571 1.114 1.76948 7.95139e-016 6.36111e-015 7.95139e-016 4.1246 0.487 4.1451 1.19271e-015 0 -3.97569e-015 3.40521 -1.45401 2.7682 -4.96962e-015 6.36111e-015 -3.97569e-015 5.6954 0.209991 2.1184 1.19271e-015 0 -3.97569e-015 3.9766 -1.53999 2.3863 -4.96962e-015 6.36111e-015 -3.97569e-015 2.09559 0.65999 -0.38939 7.95139e-016 6.36111e-015 7.95139e-016 5.0395 -0.089997 2.49707 1.19271e-015 0 -3.97569e-015 3.7921 -1.552 1.4806 -4.96962e-015 6.36111e-015 -3.97569e-015 4.9141 -1.269 0.35915 1.19271e-015 0 -3.97569e-015 3.1477 -1.685 0.84623 -4.96962e-015 6.36111e-015 -3.97569e-015 -1.70688 20.075 5.0056 11.6314 2.28011 -3.68418 -13.6458 -0.047012 -4.84902 54.8303 8.66396 0.512457 -28.3255 -0.975903 2.28883 12.0209 3.13512 -3.08942 -22.1583 -0.530036 10.8316 -2.67916 -4.9693 24.2233 -0.785995 0.111999 2.58168 -2.38542e-015 -6.36111e-015 -0 -0.3601 -0.878005 4.2331 7.95139e-016 -3.18055e-015 -0 -0.9571 1.114 1.76948 -2.38542e-015 -6.36111e-015 -0 -4.1246 0.487 4.1451 7.95139e-016 -3.18055e-015 -0 -3.40521 -1.45401 2.7682 1.59028e-015 0 -3.18055e-015 -5.6954 0.209991 2.1184 7.95139e-016 -3.18055e-015 -0 -3.9766 -1.53999 2.3863 1.59028e-015 0 -3.18055e-015 -2.09559 0.65999 -0.38939 -2.38542e-015 -6.36111e-015 -0 -5.0395 -0.089997 2.49707 7.95139e-016 -3.18055e-015 -0 -3.7921 -1.552 1.4806 1.59028e-015 0 -3.18055e-015 -4.9141 -1.269 0.35915 7.95139e-016 -3.18055e-015 -0 -3.1477 -1.685 0.84623 1.59028e-015 0 -3.18055e-015 8.367 -8.2066 0.59823 -13.6876 -0.571031 17.1894 2.19232 -43.463 -0.493181 2.4219 14.7106 9.41904 0.733257 -45.8593 -2.64513 8.40276 -16.5252 5.44389 -8.367 -8.2066 0.59823 -5.80551 -10.7305 -0.653649 -2.19233 -43.463 -0.493108 1.51411 15.8555 4.28789 -0.733256 -45.8593 -2.64514 -7.36932 3.96802 -17.5213 
22.3842 103.737 -5.16564 4.43846 -4.50507 21.8914 0 -1.186 -1.50178 -1.16947 1.33327 -0.741283 0 9.964 0.21338 -2.32254 2.6813 -1.45578 0 13.134 -3.25729 -2.32254 2.68129 -1.45577 -3.55271e-015 21.686 -1.69049 0.671406 20.7678 5.34104 0 11.838 -0.12368 -0.648032 0.532649 5.44323 1.70688 20.075 5.0056 -8.71451 6.90557 -6.09468 13.6458 -0.047012 -4.84902 -50.5184 41.0887 -1.64585 28.3255 -0.975903 2.28883 2.3922 -1.13133 -17.0027 22.1583 -0.530035 10.8316 9.03076 -6.98557 7.83915 0.785995 0.111999 2.58168 3.97569e-016 -3.18055e-015 1.59028e-015 0.3601 -0.878005 4.2331 1.59028e-015 -3.18055e-015 -5.56597e-015 0.9571 1.114 1.76948 3.97569e-016 -3.18055e-015 1.59028e-015 4.1246 0.487 4.1451 1.59028e-015 -3.18055e-015 -5.56597e-015 3.40521 -1.45401 2.7682 1.19271e-015 3.18055e-015 3.18055e-015 5.6954 0.209991 2.1184 1.59028e-015 -3.18055e-015 -5.56597e-015 3.9766 -1.53999 2.3863 1.19271e-015 3.18055e-015 3.18055e-015 2.09559 0.65999 -0.38939 3.97569e-016 -3.18055e-015 1.59028e-015 5.0395 -0.089997 2.49707 1.59028e-015 -3.18055e-015 -5.56597e-015 3.7921 -1.552 1.4806 1.19271e-015 3.18055e-015 3.18055e-015 4.9141 -1.269 0.35915 1.59028e-015 -3.18055e-015 -5.56597e-015 3.1477 -1.685 0.84623 1.19271e-015 3.18055e-015 3.18055e-015 -1.70688 20.075 5.0056 11.8516 2.25507 -3.41161 -13.6458 -0.047012 -4.84902 54.876 8.49034 0.513902 -28.3255 -0.975903 2.28883 12.1774 3.20805 -3.03568 -22.1583 -0.530036 10.8316 -1.91425 -5.25631 24.3649 -0.785995 0.111999 2.58168 -0 -3.18055e-015 -0 -0.3601 -0.878005 4.2331 -6.36111e-015 -6.36111e-015 -3.18055e-015 -0.9571 1.114 1.76948 -0 -3.18055e-015 -0 -4.1246 0.487 4.1451 -6.36111e-015 -6.36111e-015 -3.18055e-015 -3.40521 -1.45401 2.7682 -1.59028e-015 6.36111e-015 6.36111e-015 -5.6954 0.209991 2.1184 -6.36111e-015 -6.36111e-015 -3.18055e-015 -3.9766 -1.53999 2.3863 -1.59028e-015 6.36111e-015 6.36111e-015 -2.09559 0.65999 -0.38939 -0 -3.18055e-015 -0 -5.0395 -0.089997 2.49707 -6.36111e-015 -6.36111e-015 -3.18055e-015 -3.7921 -1.552 1.4806 -1.59028e-015 6.36111e-015 6.36111e-015 -4.9141 -1.269 0.35915 -6.36111e-015 -6.36111e-015 -3.18055e-015 -3.1477 -1.685 0.84623 -1.59028e-015 6.36111e-015 6.36111e-015 8.367 -8.2066 0.59823 -14.1806 -0.483337 17.0147 2.19232 -43.463 -0.493181 2.51982 15.0591 8.81006 0.733257 -45.8593 -2.64513 8.51223 -16.7544 5.69694 -8.367 -8.2066 0.59823 -5.99672 -9.74703 0.276406 -2.19233 -43.463 -0.493108 1.01718 15.1417 4.40139 -0.733256 -45.8593 -2.64514 -6.10791 3.22809 -19.6988 
22.6549 103.779 -4.94425 4.30891 -4.61484 22.5984 0 -1.186 -1.50178 -1.08647 1.28243 -0.720872 3.55271e-015 9.964 0.21338 -2.15752 2.5782 -1.41781 3.55271e-015 13.134 -3.25729 -2.15752 2.57819 -1.4178 0 21.686 -1.69049 0.201797 20.6451 4.47864 3.55271e-015 11.838 -0.12368 -0.447823 0.766918 4.50163 1.70688 20.075 5.0056 -8.94175 6.94886 -6.14989 13.6458 -0.047012 -4.84902 -50.6397 40.8034 -1.92449 28.3255 -0.975903 2.28883 2.52453 -1.17344 -16.6522 22.1583 -0.530035 10.8316 9.13074 -6.98595 7.95407 0.785995 0.111999 2.58168 -3.57812e-015 -3.18055e-015 -1.59028e-015 0.3601 -0.878005 4.2331 2.98177e-015 -6.36111e-015 -3.97569e-015 0.9571 1.114 1.76948 -3.57812e-015 -3.18055e-015 -1.59028e-015 4.1246 0.487 4.1451 2.98177e-015 -6.36111e-015 -3.97569e-015 3.40521 -1.45401 2.7682 0 0 -0 5.6954 0.209991 2.1184 2.98177e-015 -6.36111e-015 -3.97569e-015 3.9766 -1.53999 2.3863 0 0 -0 2.09559 0.65999 -0.38939 -3.57812e-015 -3.18055e-015 -1.59028e-015 5.0395 -0.089997 2.49707 2.98177e-015 -6.36111e-015 -3.97569e-015 3.7921 -1.552 1.4806 0 0 -0 4.9141 -1.269 0.35915 2.98177e-015 -6.36111e-015 -3.97569e-015 3.1477 -1.685 0.84623 0 0 -0 -1.70688 20.075 5.0056 11.7706 2.24415 -3.4738 -13.6458 -0.047012 -4.84902 54.8642 8.34496 0.65581 -28.3255 -0.975903 2.28883 12.3486 3.28209 -2.89953 -22.1583 -0.530036 10.8316 -2.61035 -5.48999 24.5838 -0.785995 0.111999 2.58168 4.77083e-015 0 -3.18055e-015 -0.3601 -0.878005 4.2331 0 6.36111e-015 -0 -0.9571 1.114 1.76948 4.77083e-015 0 -3.18055e-015 -4.1246 0.487 4.1451 0 6.36111e-015 -0 -3.40521 -1.45401 2.7682 0 0 -0 -5.6954 0.209991 2.1184 0 6.36111e-015 -0 -3.9766 -1.53999 2.3863 0 0 -0 -2.09559 0.65999 -0.38939 4.77083e-015 0 -3.18055e-015 -5.0395 -0.089997 2.49707 0 6.36111e-015 -0 -3.7921 -1.552 1.4806 0 0 -0 -4.9141 -1.269 0.35915 0 6.36111e-015 -0 -3.1477 -1.685 0.84623 0 0 -0 8.367 -8.2066 0.59823 -14.1395 -0.171659 16.4616 2.19232 -43.463 -0.493181 2.6143 15.1403 8.57244 0.733257 -45.8593 -2.64513 8.56195 -16.8479 5.84654 -8.367 -8.2066 0.59823 -6.13908 -8.34248 1.36286 -2.19233 -43.463 -0.493108 1.49463 13.4955 0.723076 -0.733256 -45.8593 -2.64514 -5.60659 3.23996 -17.8419 
22.8579 103.851 -4.77371 4.03945 -4.54275 23.3189 0 -1.186 -1.50178 -0.98537 1.19631 -0.723239 3.55271e-015 9.964 0.21338 -1.9562 2.4048 -1.42624 3.55271e-015 13.134 -3.25729 -1.9562 2.40479 -1.42623 3.55271e-015 21.686 -1.69049 -0.881653 20.2972 3.75147 3.55271e-015 11.838 -0.12368 0.603304 1.04167 3.57447 1.70688 20.075 5.0056 -8.9549 7.00263 -6.09439 13.6458 -0.047012 -4.84902 -51.1923 40.5119 -2.07762 28.3255 -0.975903 2.28883 2.46934 -1.09855 -16.2735 22.1583 -0.530035 10.8316 9.32484 -6.8821 8.15269 0.785995 0.111999 2.58168 -3.37934e-015 -3.18055e-015 3.18055e-015 0.3601 -0.878005 4.2331 -3.57812e-015 0 -0 0.9571 1.114 1.76948 -3.37934e-015 -3.18055e-015 3.18055e-015 4.1246 0.487 4.1451 -3.57812e-015 0 -0 3.40521 -1.45401 2.7682 -3.77691e-015 0 2.38542e-015 5.6954 0.209991 2.1184 -3.57812e-015 0 -0 3.9766 -1.53999 2.3863 -3.77691e-015 0 2.38542e-015 2.09559 0.65999 -0.38939 -3.37934e-015 -3.18055e-015 3.18055e-015 5.0395 -0.089997 2.49707 -3.57812e-015 0 -0 3.7921 -1.552 1.4806 -3.77691e-015 0 2.38542e-015 4.9141 -1.269 0.35915 -3.57812e-015 0 -0 3.1477 -1.685 0.84623 -3.77691e-015 0 2.38542e-015 -1.70688 20.075 5.0056 11.6149 2.16053 -3.4134 -13.6458 -0.047012 -4.84902 54.8877 8.17354 0.615585 -28.3255 -0.975903 2.28883 12.4742 3.31498 -2.87442 -22.1583 -0.530036 10.8316 -2.43404 -5.85537 24.5254 -0.785995 0.111999 2.58168 -1.59028e-015 0 -3.18055e-015 -0.3601 -0.878005 4.2331 -1.59028e-015 9.54166e-015 -3.18055e-015 -0.9571 1.114 1.76948 -1.59028e-015 0 -3.18055e-015 -4.1246 0.487 4.1451 -1.59028e-015 9.54166e-015 -3.18055e-015 -3.40521 -1.45401 2.7682 3.18055e-015 3.18055e-015 -0 -5.6954 0.209991 2.1184 -1.59028e-015 9.54166e-015 -3.18055e-015 -3.9766 -1.53999 2.3863 3.18055e-015 3.18055e-015 -0 -2.09559 0.65999 -0.38939 -1.59028e-015 0 -3.18055e-015 -5.0395 -0.089997 2.49707 -1.59028e-015 9.54166e-015 -3.18055e-015 -3.7921 -1.552 1.4806 3.18055e-015 3.18055e-015 -0 -4.9141 -1.269 0.35915 -1.59028e-015 9.54166e-015 -3.18055e-015 -3.1477 -1.685 0.84623 3.18055e-015 3.18055e-015 -0 8.367 -8.2066 0.59823 -13.973 -0.0792789 15.9121 2.19232 -43.463 -0.493181 2.66772 15.1173 8.28314 0.733257 -45.8593 -2.64513 8.60264 -16.8499 5.94307 -8.367 -8.2066 0.59823 -6.18175 -7.84614 1.13475 -2.19233 -43.463 -0.493108 1.67289 13.0803 0.670213 -0.733256 -45.8593 -2.64514 -5.23168 2.9774 -18.2288 
